<?xml version="1.0" encoding="iso-8859-1"?>
<!-- Uploaded to: SVG Repo, www.svgrepo.com, Generator: SVG Repo Mixer Tools -->
<!DOCTYPE svg PUBLIC "-//W3C//DTD SVG 1.1//EN" "http://www.w3.org/Graphics/SVG/1.1/DTD/svg11.dtd">
<svg fill="#fff" version="1.1" id="Capa_1" xmlns="http://www.w3.org/2000/svg" xmlns:xlink="http://www.w3.org/1999/xlink" 
	 width="800px" height="800px" viewBox="0 0 548.29 548.291"
	 xml:space="preserve">
<g>
	<path d="M486.205,196.116h-13.166V132.59c0-0.399-0.062-0.795-0.109-1.2c-0.021-2.52-0.828-4.997-2.556-6.96L364.656,3.677
		c-0.031-0.031-0.064-0.044-0.085-0.075c-0.629-0.704-1.364-1.29-2.141-1.796c-0.231-0.154-0.462-0.283-0.704-0.419
		c-0.672-0.365-1.386-0.672-2.121-0.893c-0.199-0.052-0.377-0.134-0.576-0.186C358.229,0.118,357.4,0,356.562,0H96.757
		C84.893,0,75.256,9.649,75.256,21.502v174.613H62.093c-16.972,0-30.733,13.756-30.733,30.733v159.812
		c0,16.961,13.761,30.731,30.733,30.731h13.163V526.79c0,11.854,9.637,21.501,21.501,21.501h354.777
		c11.853,0,21.502-9.647,21.502-21.501V417.392H486.2c16.966,0,30.729-13.771,30.729-30.731V226.849
		C516.93,209.872,503.177,196.116,486.205,196.116z M451.534,520.962H96.757v-103.57h354.777V520.962z M158.811,382.609
		l50.184-164.228h48.722l50.927,42.158H158.811z M330.566,382.609V218.381h37.292
		v164.228H330.566z M451.534,196.116H96.757V21.502h249.053v110.006c0,5.943,4.818,10.751,10.751,10.751h94.973V196.116z"/>
	<rect x="50" y="210" width="400" height="200" ></rect>
</g>
	<text x="50%" y="375px" fill="#000" font-size="200" font-family="Arial" font-weight="900" text-anchor="middle">CRF</text>
</svg>