<svg version="1.2" xmlns="http://www.w3.org/2000/svg" viewBox="0 0 2450 500" width="2450" height="500"><style>.a{stroke:#ff0090;stroke-width:33}.b{fill:#ff0090;stroke:#ff0090;stroke-width:7}.c{fill:#ff0090}</style><path class="a" d="m250.1 482.3c-128.4 0-232.1-103.7-232.1-232.1 0-128.4 103.7-232.1 232.1-232.1 128.4 0 232.1 103.7 232.1 232.1 0 128.4-103.7 232.1-232.1 232.1z"/><path fill-rule="evenodd" class="b" d="m408 345.8v9.7c0 20.9-16.7 37.6-37.6 37.6h-36.6c-20.8 0-37.5-16.7-37.5-37.6v-2.6h-111.4c-30.9 0-55.9-24.8-55.9-55.9 0-30.9 25-55.9 55.9-55.9h133.2c20.8 0 38.1-17.2 38.1-38 0-20.9-17.3-38.2-38.1-38.2h-112.8c-4.6 15.8-19.3 26.9-36.1 26.9h-36.6c-20.8 0-37.6-16.7-37.6-37.5v-9.7c0-20.8 16.8-37.6 37.6-37.6h36.6c20.8 0 37.6 16.8 37.6 37.6v2.6h111.3c31 0 55.9 24.8 55.9 55.9 0 30.9-24.9 55.9-55.9 55.9h-133.2c-20.8 0-38 17.2-38 38 0 20.9 17.2 38.2 38 38.2h112.9c4.5-15.8 19.3-26.9 36-26.9h36.6c20.4 0 37.6 16.7 37.6 37.5zm-295.2-193.2c0 12.2 9.8 22 22 22h32.3c12.1 0 22-9.8 22-22v-5.3c0-12.2-9.9-22-22-22h-32.3c-12.2 0-22 9.8-22 22zm201.2 200.6c0 12.1 9.9 22 22 22h32.2c12.2 0 22-9.9 22-22v-5.3c0-12.2-9.8-22-22-22h-32.2c-12.1 0-22 9.8-22 22z"/><path fill-rule="evenodd" class="c" d="m606 426h-69l65.5-326h193l-11 57.5h-125.5l-15.5 80h106l-11 57.5h-106.5zm233.5 0h-68.5l50-248h68zm27-285q-14 0-25.5-8-11.5-8.5-11.5-25 0-16.5 12.5-28.5 12.5-12 30-12 14.5 0 25.5 8.5 11.5 8.5 11.5 24.5 0 17.5-12.5 29-12 11.5-30 11.5zm87.5 291q-26.5 0-38.5-13-11.5-13-11.5-35.5 0-13 3.5-30.5l55.5-277.5h68.5l-56.5 280.5q-0.5 3.5-1 5.5 0 2 0 4 0 6.5 3 9 3 2.5 6.5 2.5 2.5 0 4 0 1.5-0.5 5-1l-2 50.5q-6.5 2-15.5 4-9 1.5-21 1.5zm174 0q-45 0-73.5-28-28-28.5-28-78 0-34.5 12-62.5 12-28.5 32-49 20.5-20.5 45-31.5 24.5-11 49-11 29.5 0 47 12.5 18 12.5 26 33.5 8 21 8 47 0 17-4.5 33.5-4.5 16-7.5 21.5h-142q-2 32 14.5 46.5 16.5 14 41 14 11.5 0 24-5.5 12.5-5.5 22-12l24 43q-15 10.5-37.5 18.5-22.5 7.5-51.5 7.5zm-31-154h90q2.5-7.5 2.5-17 0-15-7.5-25.5-7-11-26-11-17.5 0-34 13.5-16.5 13.5-25 40zm235 148h-69l65.5-326h193l-11 57.5h-125.5l-15.5 80h106l-11 57.5h-106.5zm226.5 6q-26.5 0-38.5-13-11.5-13-11.5-35.5 0-13 3.5-30.5l55.5-277.5h68.5l-56.5 280.5q-0.5 3.5-1 5.5 0 2 0 4 0 6.5 3 9 3 2.5 6.5 2.5 2.5 0 4 0 1.5-0.5 5-1l-2 50.5q-6.5 2-15.5 4-9 1.5-21 1.5zm169 0q-43.5 0-70-28-26-28-26-74 0-36 12-65 12-29 32-50 20-21 44.5-32 25-11 50.5-11 29 0 50.5 13 21.5 12.5 33.5 35.5 12 22.5 12 53.5 0 36-12 65-12 29-32 50-20 21-45 32-24.5 11-50 11zm7.5-55q17 0 31-13 14-13.5 22.5-36.5 9-23 9-52 0-23-9-35.5-8.5-13-26-13-16.5 0-31 13.5-14 13-22.5 36-8.5 23-8.5 52 0 22.5 8.5 35.5 9 13 26 13zm254.5 49h-77.5l-12-248h67.5l0.5 120q-0.5 18-1.5 36.5-0.5 18-1.5 36.5h2q7-18.5 13.5-37 6.5-18.5 14.5-36l51-120h59.5l4 120q0.5 18 0 36.5 0 18 0 36.5h2q7-18.5 13-36.5 6-18.5 13-36.5l46.5-120h63.5l-106 248h-80.5l-2-104q0.5-17.5 0.5-35 0-18 0.5-37.5h-2q-7 19.5-13 37.5-6 17.5-13 35zm322.5 6q-23 0-48.5-12.5-25-12.5-40.5-35.5l39.5-33q26 31 53.5 31 14.5 0 24.5-6.5 10.5-7 10.5-17 0-11-11-18-11-7-33-19.5-19.5-11-34.5-28-14.5-17-14.5-40 0-23.5 12.5-41.5 13-18.5 34.5-29 22-10.5 48.5-10.5 25.5 0 46 11 20.5 11 35.5 27l-37 35q-9.5-9-21-15.5-11-6.5-24-6.5-14 0-22.5 7-8.5 6.5-8.5 16.5 0 11.5 13 19 13.5 7 28 15.5 22 11.5 37 27.5 15 15.5 15 42 0 24-13.5 42.5-13 18.5-36.5 29-23 10-53 10z"/></svg>